{"title":"Captain America Civil War (2016) HQ 1080p Blu-ray x264 DTS-HR FR","uid":15728152,"size":15353796780,"categoryP":"video","categoryS":"hd___movies","magnet":"?xt=urn:btih:9e589eaefccabc0bcafe7c92de3019ed772726ab&amp;dn=Captain+America+Civil+War+%282016%29+HQ+1080p+Blu-ray+x264+DTS-HR+FR&amp;tr=udp%3A%2F%2Ftracker.leechers-paradise.org%3A6969&amp;tr=udp%3A%2F%2Fzer0day.ch%3A1337&amp;tr=udp%3A%2F%2Fopen.demonii.com%3A1337&amp;tr=udp%3A%2F%2Ftracker.coppersurfer.tk%3A6969&amp;tr=udp%3A%2F%2Fexodus.desync.com%3A6969","seeders":5,"leechers":5,"uploader":"SaM","files":3,"time":1472746107,"description":"- HollyWooD Movie-\r\n\r\nCaptain America\r\n- CiVil War -\r\n** 2016 **\r\nHD 1080p / Blu-ray / x264\r\nFrench DTS-Hires 5.1\r\nEnglish, French &amp; Dutch Subs\r\n\r\nForced &amp; Hearing Impaired subs included\r\n \nhttp://extraimago.com/image/wyzC  \nhttp://extraimago.com/image/wyzB  \nhttp://extraimago.com/image/wyz4  \nhttp://extraimago.com/image/wyze  \nhttp://extraimago.com/image/wyzZ  \nhttp://extraimago.com/image/wyzK  \nhttp://extraimago.com/image/wyzJ  \nhttp://extraimago.com/image/wyz0  \nhttp://extraimago.com/image/wyzz  \nhttp://extraimago.com/image/wyzU  \nhttp://extraimago.com/image/wyzM  \nhttp://extraimago.com/image/wyz9  \nhttp://extraimago.com/image/wyzP  \nhttp://extraimago.com/image/wyzG  \nhttp://extraimago.com/image/wyzr  \nhttp://extraimago.com/image/wyzp  \nhttp://extraimago.com/image/wyzY\r\n\r\n\r\n\r\nSOURCE: BD50 @ HDT\r\n\r\nFile size : 14.2 GiB\r\nDuration : 2 h 27 min\r\nOverall bit rate : 13.8 Mb/s\r\n\r\nVideo\r\nFormat : AVC\r\nFormat/Info : Advanced Video Codec\r\nFormat profile :   \r\nFormat settings, CABAC : Yes\r\nFormat settings, ReFrames : 5 frames\r\nCodec ID : V_MPEG4/ISO/AVC\r\nDuration : 2 h 27 min\r\nBit rate : 11.7 Mb/s\r\nWidth : 1 920 pixels\r\nHeight : 800 pixels\r\nDisplay aspect ratio : 2.40:1\r\nFrame rate mode : Constant\r\nFrame rate : 23.976 (24000/1001) FPS\r\ncolor space : YUV\r\nChroma subsampling : 4:2:0\r\nBit depth : 8 bits\r\nScan type : Progressive\r\nBits/(Pixel*Frame) : 0.318\r\nStream size : 12.1 GiB (85%)\r\n\r\nAudio\r\nFFormat : DTS\r\nFormat/Info : Digital Theater Systems\r\nFormat profile : HRA / Core\r\nMode : 16\r\nFormat settings, Endianness : Big\r\nCodec ID : A_DTS\r\nDuration : 2 h 27 min\r\nBit rate mode : Constant\r\nBit rate : 2 046 kb/s / 1 509 kb/s\r\nChannel(s) : 6 channels\r\nChannel positions : Front: L C R, Side: L R, LFE\r\nSampling rate : 48.0 kHz\r\nFrame rate : 93.750 FPS (512 spf)\r\nBit depth : 24 bits\r\nCompression mode : Lossy\r\nStream size : 2.11 GiB (15%)\r\nLanguage : French\r\nDefault : Yes\r\nForced : No\r\n\r\nChapters = Yes\r\nSample : Included","torrent":{"xt":"urn:btih:9e589eaefccabc0bcafe7c92de3019ed772726ab","amp;dn":"Captain+America+Civil+War+%282016%29+HQ+1080p+Blu-ray+x264+DTS-HR+FR","amp;tr":["udp%3A%2F%2Ftracker.leechers-paradise.org%3A6969","udp%3A%2F%2Fzer0day.ch%3A1337","udp%3A%2F%2Fopen.demonii.com%3A1337","udp%3A%2F%2Ftracker.coppersurfer.tk%3A6969","udp%3A%2F%2Fexodus.desync.com%3A6969"],"infoHash":"9e589eaefccabc0bcafe7c92de3019ed772726ab","infoHashBuffer":{"type":"Buffer","data":[158,88,158,174,252,202,188,11,202,254,124,146,222,48,25,237,119,39,38,171]},"announce":[],"urlList":[]}}